<?xml version="1.0" encoding="UTF-8" standalone="no"?>
<svg
   version="1.1"
   width="742.43402"
   height="798.328"
   viewBox="0 0 742.43402 798.328"
   xml:space="preserve"
   id="svg86"
   sodipodi:docname="Logo_of_the_Communist_Party_of_Indonesia.svg"
   inkscape:version="1.3 (0e150ed6c4, 2023-07-21)"
   xmlns:inkscape="http://www.inkscape.org/namespaces/inkscape"
   xmlns:sodipodi="http://sodipodi.sourceforge.net/DTD/sodipodi-0.dtd"
   xmlns="http://www.w3.org/2000/svg"
   xmlns:svg="http://www.w3.org/2000/svg"><sodipodi:namedview
   id="namedview86"
   pagecolor="#ffffff"
   bordercolor="#666666"
   borderopacity="1.0"
   inkscape:showpageshadow="2"
   inkscape:pageopacity="0.0"
   inkscape:pagecheckerboard="0"
   inkscape:deskcolor="#d1d1d1"
   inkscape:zoom="1.03125"
   inkscape:cx="370.42424"
   inkscape:cy="399.0303"
   inkscape:window-width="1920"
   inkscape:window-height="1007"
   inkscape:window-x="-9"
   inkscape:window-y="-9"
   inkscape:window-maximized="1"
   inkscape:current-layer="g35" />&#10;<desc
   id="desc1">Created with Fabric.js 3.6.6</desc>&#10;<defs
   id="defs1">&#10;</defs>&#10;<g
   id="g87"
   transform="translate(-29.288,-1.332)"><g
     transform="translate(400.5,400.5)"
     id="g86">&#10;<g
   id="g85">&#10;		<g
   transform="translate(-62.14,311.33)"
   id="g1">&#10;<path
   style="opacity:1;fill:none;fill-rule:nonzero;stroke:#ffffff;stroke-width:51;stroke-linecap:round;stroke-linejoin:round;stroke-miterlimit:10;stroke-dasharray:none;stroke-dashoffset:0"
   transform="translate(-338.36,-711.83)"
   d="m 300.38431,709.38433 q -0.051,-0.051 -1.051,-0.051 -1,0 -3,-1 -2,-1 -3,-2 -1,-1 -2,-1 -1,0 -2,0 -1,0 -1,-1 0,-1 1.5,-1 1.5,0 4,1 2.5,1 4.5,1.5 2,0.5 4.5,1.5 2.5,1 4.5,1 2,0 3,0 1,0 2,0 1,0 2,0 1,0 2,0 1,0 3.5,0 2.5,0 3.5,0 1,0 2,0 1,0 2,0 1,0 2,1.5 1,1.5 2,1.5 1,0 2,1 1,1 2.5,1 1.5,0 2.5,1 1,1 2,1 1,0 2,1 1,1 1,1.5 0,0.5 0,1.5 0,1 1,1 1,0 2,0 1,0 2.5,0 1.5,0 2.5,0 1,0 2.5,0 1.5,0 2.5,0 1,0 2,0 1,0 1,-1.5 0,-1.5 1,-1.5 1,0 2,0 1,0 2,0 1,0 2,0 1,0 1,-1 0,-1 1,-1 1,0 5.5,0 4.5,0 6.5,1 2,1 3,2.5 1,1.5 2,1.5 1,0 2,0 h 1.051"
   stroke-linecap="round"
   id="path1" />&#10;</g>&#10;		<g
   transform="translate(2.09,290.21)"
   id="g2">&#10;<path
   style="opacity:1;fill:none;fill-rule:nonzero;stroke:#ffffff;stroke-width:51;stroke-linecap:round;stroke-linejoin:round;stroke-miterlimit:10;stroke-dasharray:none;stroke-dashoffset:0"
   transform="translate(-402.6,-690.71)"
   d="m 270.28231,666.28233 q 0.051,0.051 7.051,2.551 7,2.5 11.5,3.5 4.5,1 7.5,1.5 3,0.5 5,1.5 2,1 3,1 1,0 1.5,0 0.5,0 3,1 2.5,1 3.5,1 1,0 2,0 1,0 2,0 1,0 3,0 2,0 4.5,0 2.5,0 4.5,0 2,0 5,0 3,0 4,1 1,1 2,1 1,0 2.5,1 1.5,1 3.5,2 2,1 5.5,3.5 3.5,2.5 4.5,2.5 1,0 3.5,0 2.5,0 4.5,1 2,1 3,1 1,0 4.5,0.5 3.5,0.5 8,2 4.5,1.5 7,2 2.5,0.5 11,1.5 8.5,1 14,2 5.5,1 6.5,1 1,0 2,0 1,0 3.5,0 2.5,0 3.5,0 1,0 1.5,0 0.5,0 1.5,0 1,0 2,-1 1,-1 4,-1 3,0 4.5,-1 1.5,-1 2.5,-1 1,0 3,0 2,0 3,0 1,0 2,0 1,0 2,0 1,0 5.5,0 4.5,0 5.5,0 1,0 2,0 1,0 2.5,0 1.5,0 2.5,0 1,0 3.5,0 2.5,0 3.5,0 1,0 2,0 1,0 2,0 1,0 3,1 2,1 3,2 1,1 4.5,1 3.5,0 4.5,0 1,0 2,0 1,0 3.5,0 2.5,0 3.5,0 1,0 2.5,0 1.5,0 2.5,0 1,0 2,0 1,0 2,-1 1,-1 2,-1 1,0 0,0 -1,0 -4,1 -3,1 -4.5,2.5 -1.5,1.5 -3.5,1.5 -2,0 -2,1 0,1 -1,1 -1,0 -2,0 -1,0 -2,1 -1,1 -4.5,2.5 -3.5,1.5 -4.5,2.5 -1,1 -1,2 0,1 3.5,1 3.5,0 10,-1 6.5,-1 6.5,-2 0,-1 1,-1 1,0 1,-1 0,-1 -1,-1 -1,0 -4,0 -3,0 -5,0.5 -2,0.5 -3.5,1 -1.5,0.5 -2.5,1.5 -1,1 -2,1 -1,0 -2,0 -1,0 1,0 2,0 4,0 2,0 2,-1 0,-1 1.5,-1 1.5,0 2.5,0 1,0 2,-1 1,-1 2,-2 1,-1 2,-1 1,0 2,-1 1,-1 1,-2.5 0,-1.5 1,-1.5 1,0 2,0 1,0 2.5,0 1.5,0 2.5,0 1,0 2,0 1,0 2,0 1,0 3,0 2,0 3,0 1,0 2,0 1,0 2.5,0 1.5,0 2.5,0 1,0 -2.5,0 -3.5,0 -5,0 -1.5,0 -4.5,2.5 -3,2.5 -6,2.5 -3,0 -5,1 -2,1 -3.5,2 -1.5,1 -3,1 -1.5,0 -2.5,1 -1,1 -3.5,1 -2.5,0 -4.5,1 -2,1 -4,1 -2,0 -3,1 -1,1 -4.5,1 -3.5,0 -5,0 -1.5,0 -2,1 -0.5,1 -3,1 -2.5,0 -3,0 -0.5,0 -1,1.5 -0.5,1.5 -1.5,1.5 -1,0 -3.5,0 -2.5,0 -3.5,0 -1,0 -2,0 -1,0 -2,0 -1,0 -2,0 -1,0 -2,0 -1,0 -2,0 -1,0 -2,0 -1,0 -2.5,0 -1.5,0 -2.5,0 -1,0 -2,0 -1,0 -2,0 -1,0 -2,0 -1,0 -2,0 -1,0 -1.5,0 -0.5,0 -1.5,0 -1,0 -1.5,0 -0.5,0 -1.5,0 -1,0 -2,0 -1,0 -2,0 -1,0 -3,0 -2,0 -3,0 -1,0 -2,0 -1,0 -2,-1.5 -1,-1.5 -2.5,-1.5 -1.5,0 -2.5,-1 -1,-1 -2,-1 -1,0 -2,0 -1,0 -2,0 -1,0 -2,-1 -1,-1 -2,-1 -1,0 -2,0 -1,0 -2.5,0 -1.5,0 2,1.5 3.5,1.5 5.5,2.5 2,1 3,1 1,0 2.5,1 1.5,1 2.5,1 1,0 1,1 0,1 -1,1 -1,0 -2.5,-1 -1.5,-1 -2.5,-1 -1,0 -2,0 -1,0 -2,0 -1,0 -2,-1 -1,-1 -2,-1 -1,0 -1.5,0 -0.5,0 -2,0 -1.5,0 -3,-1 -1.5,-1 -2.5,-1 -1,0 0,0 1,0 2.5,1 1.5,1 2.5,1 1,0 2,1 1,1 2,1 1,0 1.5,0.5 0.5,0.5 1,1 0.5,0.5 1.5,0.5 1,0 2,1 1,1 2,1 1,0 1,1 0,1 -1,1 -1,0 -2,0 -1,0 -1.5,-0.5 -0.5,-0.5 -2,-1 -1.5,-0.5 -2.5,-1.5 -1,-1 -2,-1 -1,0 -2,0 -1,0 0,0 1,0 2,0 1,0 2,0 1,0 2,0 1,0 2,1 1,1 2,1 1,0 2,0 1,0 2.5,1 1.5,1 2.5,1 1,0 2,0 1,0 1,1 0,1 1,1 1,0 2,1 1,1 0,0 -1,-1 -2,-1 -1,0 -2,-1 -1,-1 -2,-2 -1,-1 -1,-2 0,-1 0,-5.5 0,-4.5 1,-6.5 1,-2 1,-3.5 0,-1.5 1,-2.5 1,-1 1,-2 0,-1 0.5,-3.5 0.5,-2.5 1,-5.5 0.5,-3 1.5,-4 1,-1 1,-2 0,-1 0,-2 0,-1 0,-3.5 0,-2.5 0,-3.5 0,-1 0,-2.5 0,-1.5 -1,-2.5 -1,-1 -2,-1 -1,0 -2,0 -1,0 -7,0.5 -6,0.5 -9,2 -3,1.5 -5.5,1.5 -2.5,0 -4.5,1 -2,1 -3,1 -1,0 -3,0 -2,0 -2,1.5 0,1.5 -1,1.5 -1,0 -4.5,1 -3.5,1 -4.5,1 -1,0 -2.5,0 -1.5,0 -3.5,0 -2,0 -3.5,1 -1.5,1 -6,1 -4.5,0 -6,0 -1.5,0 -3,0 -1.5,0 -5,-1 -3.5,-1 -4.5,-2 -1,-1 -6,-2.5 -5,-1.5 -7,-2.5 -2,-1 -3,-2 -1,-1 -2,-1 -1,0 -1,-1 0,-1 -1,-2 -1,-1 -2,-2 -1,-1 -2,-2 -1,-1 -2.5,-2 -1.5,-1 -2.5,-2.5 -1,-1.5 -2,-2.5 -1,-1 -2,-3 -1,-2 -2.5,-4 -1.5,-2 -2,-3 -0.5,-1 -1,-1 -0.5,0 -0.5,-0.5 0,-0.5 1,-0.5 1,0 2,1 1,1 2,1 1,0 2,1 1,1 2,1 1,0 3.5,1 2.5,1 3.5,1 1,0 2,1 1,1 2,1 1,0 2,1 1,1 2,1 1,0 2,1 1,1 2.5,1 1.5,0 2.5,1 1,1 2,1 1,0 2,1 1,1 2,1 1,0 2,1 1,1 2,1 1,0 1.5,1 0.5,1 3,2 2.5,1 3.5,1 1,0 2,1 1,1 2,1 1,0 2,1 1,1 2,1 1,0 2,1 1,1 5,2 4,1 7,1.5 3,0.5 5,2 2,1.5 4.5,2.5 2.5,1 5.5,2 3,1 4,1 1,0 3,0 2,0 4.5,2 2.5,2 3.5,3 1,1 2,1 1,0 2,0 1,0 3,0 2,0 4.5,0 2.5,0 3.5,-1 1,-1 2,-2 1,-1 2,-1 1,0 2,-1 1,-1 1.5,-1 0.5,0 1,0 0.5,0 1.5,0 1,0 2,0 1,0 1.5,0 0.5,0 2,0 1.5,0 1.5,-1 0,-1 1,-1 1,0 2,0 1,0 1,-1 0,-1 1,-1 1,0 1,-1.5 0,-1.5 1,-1.5 1,0 2,-1 1,-1 0,-2 -1,-1 -2,-1 -1,0 -2,0 -1,0 -2,0 -1,0 -2,0 -1,0 -1,-1 0,-1 0,-2 0,-1 1,-2 1,-1 1,-2 0,-1 1,-1 1,0 1,-1 0,-1 1,-1 1,0 2,0 1,0 3,0 2,0 3,0 1,0 2.5,0 1.5,0 2.5,0 1,0 4,0 3,0 5,0 2,0 3,0 1,0 3.5,-1.5 2.5,-1.5 3.5,-1.5 1,0 1.5,0 0.5,0 2,0 1.5,0 2.5,0 1,0 2,0 1,0 2,0 1,0 2.5,0 1.5,0 2.5,1.5 1,1.5 2,1.5 1,0 1.5,0 0.5,0 1.5,0 1,0 2,1 1,1 2,1 1,0 2,0 1,0 2,0 1,0 2.5,0 1.5,0 2.5,0 1,0 1,-1 0,-1 -1,-1 -1,0 -2.5,-1.5 -1.5,-1.5 -2.5,-1.5 -1,0 -2,-1 -1,-1 -2,-1 -1,0 -1.5,-0.5 -0.5,-0.5 -1,-1 -0.5,-0.5 -2.5,-2.5 -2,-2 -1,-2 1,0 2,0 1,0 3,2 2,2 3,2 1,0 1,1 0,1 1,1 1,0 2.5,1 1.5,1 0,1 -1.5,0 -0.5,0 1,0 3.5,-1 2.5,-1 2.5,-2 0,-1 1,-1 1,0 2,0 1,0 2,0 1,0 1.5,1.5 0.5,1.5 1,6.5 0.5,5 0.5,6 0,1 -1.5,2.5 -1.5,1.5 -3.5,2.5 -2,1 -4.5,1 -2.5,0 -4.5,1.5 -2,1.5 -4,1.5 -2,0 -3,1 -1,1 -2,1 -1,0 -2,0 -1,0 -4.5,1 -3.5,1 -4.5,1 -1,0 -2.5,0 -1.5,0 -2.5,1 -1,1 -2,1 -1,0 -2,0 -1,0 -2.5,0 -1.5,0 -2,1 -0.5,1 -2,1 -1.5,0 -4.5,0 -3,0 -4,0 -1,0 -4,1 -3,1 -5,2 -2,1 -4,2 -2,1 -3,1 -1,0 -2,0 -1,0 -5.5,1.5 -4.5,1.5 -6.5,2.5 -2,1 -4,2 -2,1 -8,2 -6,1 -9.5,1 -3.5,0 -5,0 -1.5,0 -4,0 -2.5,0 -3.5,0 -1,0 -2,0 -1,0 -3,0 -2,0 -3,0 -1,0 -3.5,0 -2.5,0 -3.5,-1 -1,-1 -2,-1 -1,0 -3,-2 -2,-2 -3,-2 -1,0 -3,0 -2,0 -5.5,0 -3.5,0 -5.5,0 -2,0 -4,0 -2,0 -3,0 -1,0 -4,0 -3,0 -4,0 -1,0 -2,0 -1,0 -4,0 -3,0 -4.5,0 -1.5,0 -2.5,0 -1,0 -2,0 -1,0 -3,0 -2,0 -2,1 0,1 -0.5,1 -0.5,0 -3,1 -2.5,1 -4,1 -1.5,0 -2.5,0 -1,0 -1.5,0 -0.5,0 -1.5,0 -1,0 -2,0 -1,0 -2,0 -1,0 -2,0 -1,0 1.5,-0.5 2.5,-0.5 28.5,-1.5 26,-1 29.5,-2 3.5,-1 6,-2 2.5,-1 4.5,-1 2,0 4,-1 2,-1 6.5,-2 4.5,-1 5.5,-1 1,0 2,-1 1,-1 2,-2 1,-1 2,-1 1,0 2,0 1,0 1,-1 0,-1 -1,-1 -1,0 -1,-3.5 0,-3.5 0,-4.5 0,-1 1,-1 1,0 1,-0.5 0,-0.5 1,-0.5 1,0 1,-1 0,-1 1.5,-1 1.5,0 2.5,-1 1,-1 2,-1 1,0 1,-1 0,-1 1,-1 1,0 2,0 1,0 3,0 2,0 3,0 1,0 2.5,0 1.5,0 2.5,0 1,0 3,1 2,1 3,2 1,1 2,1 1,0 1.5,0 0.5,0 1.5,0 1,0 2,1 1,1 2.5,1 1.5,0 3.5,1 2,1 4,1 2,0 3,0 1,0 3,0 2,0 3.5,1 1.5,1 3.5,1 2,0 3,0 1,0 2,0 1,0 3,0 2,0 2.5,0 0.5,0 2,0 1.5,0 2.5,0 1,0 2,-1 1,-1 3,-1 2,0 2,-1 0,-1 0.5,-1 0.5,0 1,0 0.5,0 1.5,0 1,0 2,-2 1,-2 2.5,-2 1.5,0 2.5,0 1,0 2,-1 1,-1 2,-2.5 1,-1.5 2,-1.5 1,0 2,0 1,0 2,0 1,0 2,0 1,0 2.5,0 1.5,0 2.5,0 1,0 2,0 1,0 2,0 1,0 2,0 1,0 1,-1 0,-1 0,-1.5 0,-0.5 0,-1.5 0,-1 1,-3 1,-2 1,-2.5 0,-0.5 0,-1 0,-0.5 -1,-0.5 -1,0 -2,-1 -1,-1 -2,-1 -1,0 -2.5,0.5 -1.5,0.5 -4,2.5 -2.5,2 -6.5,3 -4,1 -5,2 -1,1 -2.5,1 -1.5,0 -2.5,0 -1,0 -3,0 -2,0 -3,-1 -1,-1 -2,-1 -1,0 -2,0 -1,0 -2,0 -1,0 0,0 1,0 2,1 1,1 2,1 h 1.051"
   stroke-linecap="round"
   id="path2" />&#10;</g>&#10;		<g
   transform="translate(-3.8,26.61)"
   id="g3">&#10;<path
   style="opacity:1;fill:none;fill-rule:nonzero;stroke:#ffffff;stroke-width:51;stroke-linecap:round;stroke-linejoin:round;stroke-miterlimit:10;stroke-dasharray:none;stroke-dashoffset:0"
   transform="translate(-396.71,-427.11)"
   d="m 331.28231,325.33333 q 0.051,0 1.051,0 1,0 3,0 2,0 4,2 2,2 5.5,3.5 3.5,1.5 5.5,2.5 2,1 4.5,1.5 2.5,0.5 7,1.5 4.5,1 6.5,1 2,0 6,0 4,0 8.5,0 4.5,0 6.5,0 2,0 8,2.5 6,2.5 8.5,2.5 2.5,0 7.5,0 5,0 6,0 1,0 2,0 1,0 2,0 1,0 2,0 1,0 2,0 1,0 2,0 1,0 3,1 2,1 3,1 1,0 2,0 1,0 2,0 1,0 2.5,0 1.5,0 2,0 0.5,0 -1.5,-1 -2,-1 -4,-1 -2,0 -3,-1.5 -1,-1.5 -2.5,-1.5 -1.5,0 -2.5,0 -1,0 -2,0 -1,0 -2,-1 -1,-1 -2,-1 -1,0 -3,0 -2,0 -4.5,-1 -2.5,-1 -4.5,-1 -2,0 -3,-1 -1,-1 -3.5,-1 -2.5,0 -6,-1 -3.5,-1 -4.5,-2 -1,-1 -2,-1 -1,0 -2,0 -1,0 -1.5,-1 -0.5,-1 -3,-1 -2.5,0 -3.5,-1 -1,-1 0,1 1,2 3.5,12.5 2.5,10.5 2.5,16.5 0,6 0,16 0,10 0,20.5 0,10.5 0,11.5 0,1 0,3 0,2 -1,3 -1,1 -1,2 0,1 0,2 0,1 0,1.5 0,0.5 0,3 0,2.5 0,3.5 0,1 0,2 0,1 0,3 0,2 0,3 0,1 2,5 2,4 3,8.5 1,4.5 2,5.5 1,1 1,2 0,1 0,2.5 0,1.5 0,3.5 0,2 0,3 0,1 1,3 1,2 2,3 1,1 1,2 0,1 1,4 1,3 1,4 0,1 0,2 0,1 0,2 0,1 1.5,2 1.5,1 1.5,2 0,1 0,2.5 0,1.5 1,1.5 1,0 2,0 1,0 2,-1.5 1,-1.5 3,-1.5 2,0 2,-1 0,-1 1,-1 1,0 2,-1 1,-1 2.5,-2 1.5,-1 2.5,-1 1,0 2,-1 1,-1 3,-1 2,0 2,-1 0,-1 1,-1 1,0 1.5,0 0.5,0 1,-1 0.5,-1 1.5,-1 1,0 1,-1 0,-1 1,-1 1,0 2.5,-1 1.5,-1 1.5,-2 0,-1 1,-1 1,0 1,1 0,1 2,4.5 2,3.5 4,5.5 2,2 2,3.5 0,1.5 1.5,4.5 1.5,3 1.5,4 0,1 2.5,4 2.5,3 2.5,4 0,1 1,2.5 1,1.5 2,3.5 1,2 1,3 0,1 0,2 0,1 0,2 0,1 1,2 1,1 1,2 0,1 0,2 0,1 1,3.5 1,2.5 1,3.5 0,1 0,2 0,1 0,2 0,1 2,-3 2,-4 4.5,-8.5 2.5,-4.5 3.5,-7 1,-2.5 1,-5 0,-2.5 0,-3.5 0,-1 0,-2 0,-1 0,-2 0,-1 -1,-2.5 -1,-1.5 -2,-3 -1,-1.5 -1,-2.5 0,-1 -2.5,-2.5 -2.5,-1.5 -4.5,-4.5 -2,-3 -3,-4 -1,-1 -2,-2 -1,-1 -3,-3 -2,-2 -3,-3.5 -1,-1.5 -2,-2.5 -1,-1 -2,-2 -1,-1 -2,-2 -1,-1 -2,-1.5 -1,-0.5 -2,-1.5 -1,-1 -2,-2 -1,-1 -1,-2 0,-1 -1,-1 -1,0 -1,-1.5 0,-1.5 0,-2.5 0,-1 -1.5,-1 -1.5,0 -1.5,-1 0,-1 -1,-2 -1,-1 -1,-2 0,-1 0.5,-3 0.5,-2 0.5,-2.5 0,-0.5 0,-2.5 0,-2 0,-3 0,-1 0,-4 0,-3 0,-4 0,-1 0,-2 0,-1 0,-1.5 0,-0.5 0,-3 0,-2.5 0,-3.5 0,-1 0,-2 0,-1 0,-3 0,-2 0,-3 0,-1 -1,-3 -1,-2 -1,-3.5 0,-1.5 -1,-3.5 -1,-2 -1,-3 0,-1 0,-3 0,-2 0,-3.5 0,-1.5 1,-4 1,-2.5 1,-3.5 0,-1 0.5,-1 0.5,0 2.5,-1 2,-1 2.5,-1 0.5,0 2,0 1.5,0 3.5,0 2,0 3,0 1,0 2,0 1,0 2,0 1,0 2.5,0 1.5,0 2.5,0 1,0 2,0 1,0 2,0 1,0 1,1 0,1 0.5,1 0.5,0 1,1 0.5,1 1.5,3.5 1,2.5 1.5,4.5 0.5,2 0.5,3.5 0,1.5 0,3 0,1.5 0.5,3.5 0.5,2 1.5,3.5 1,1.5 1,2.5 0,1 0,2.5 0,1.5 0,2.5 0,1 0,2 0,1 1.5,2 1.5,1 1.5,2 0,1 0,2.5 0,1.5 0,2.5 0,1 0,1.5 0,0.5 0,1 0,0.5 0,1.5 0,1 0,2 0,1 0,2 0,1 0,0 0,-1 -4,-6.5 -4,-5.5 -5.5,-7.5 -1.5,-2 -4,-4 -2.5,-2 -3.5,-4.5 -1,-2.5 -2,-3.5 -1,-1 -2,-2 -1,-1 -1,-1.5 0,-0.5 0,-1 0,-0.5 -1,-1.5 -1,-1 -2,-2 -1,-1 -2,-2 -1,-1 -2,-2.5 -1,-1.5 -1.5,-2 -0.5,-0.5 -3,-2.5 -2.5,-2 -3.5,-3 -1,-1 -4,-4 -3,-3 -4,-4 -1,-1 -2.5,-3.5 -1.5,-2.5 -4,-4 -2.5,-1.5 -3.5,-2.5 -1,-1 -4,-4 -3,-3 -4,-4.5 -1,-1.5 -2,-2.5 -1,-1 -3,-2 -2,-1 -3,-1 -1,0 -2,-1 -1,-1 -2,-1 -1,0 -2,-1 -1,-1 -2,-1 -1,0 -2,0 -1,0 -1,1 0,1 -2.5,2 -2.5,1 -3.5,2 -1,1 -3.5,7.5 -2.5,6.5 -3.5,8.5 -1,2 -2,3 -1,1 -1,4.5 0,3.5 -1,4.5 -1,1 -1,2 0,1 0,2 0,1 0,3 0,2 0,4.5 0,2.5 0,4.5 0,2 0,3 0,1 0,4 0,3 0,5.5 0,2.5 0,3.5 0,1 0,2 0,1 0,2 0,1 0,2 0,1 0,1.5 0,0.5 -1,2 -1,1.5 -1.5,3 -0.5,1.5 -0.5,2.5 0,1 0,2.5 0,1.5 -1,3.5 -1,2 -2,3 -1,1 -3,3.5 -2,2.5 -3,4.5 -1,2 -1,4 0,2 -1,4 -1,2 -3.5,5.5 -2.5,3.5 -2.5,5.5 0,2 -1,4 -1,2 -2,4 -1,2 -1,3.5 0,1.5 0,3.5 0,2 -1,4 -1,2 -1,3 0,1 0,2 0,1 -1,1 -1,0 -1,1 0,1 0,2.5 0,1.5 -1,1.5 -1,0 -2,1 -1,1 -1,2 0,1 -2.5,3 -2.5,2 -3.5,2 -1,0 -3,2 -2,2 -3,2 -1,0 -1,1 0,1 -1,1 -1,0 -2,1.5 -1,1.5 -2,2 -1,0.5 -1,1 0,0.5 -1,0.5 -1,0 -2,1 -1,1 -2,2 -1,1 -1,2 0,1 -1,2 -1,1 -1,2 0,1 -1,1 -1,0 -1,-2 0,-2 3,-6 3,-4 6.5,-8.5 3.5,-4.5 4.5,-5.5 1,-1 1,-2 0,-1 1,-4.5 1,-3.5 3,-4.5 2,-1 3,-1 1,0 2,-1 1,-1 1,-2 0,-1 2.5,-3 2.5,-2 3.5,-5.5 1,-3.5 2,-5.5 1,-2 1,-3 0,-1 1,-5 1,-4 1,-5.5 0,-1.5 0,-3.5 0,-2 1,-3.5 1,-1.5 1,-3.5 0,-2 0,-6.5 0,-4.5 0,-6.5 0,-2 0,-4 0,-2 0,-6.5 0,-4.5 0,-6.5 0,-2 0,-5 0,-3 0,-5 0,-2 0,-3 0,-1 0,-2 0,-1 0,-2 0,-1 0,-3 0,-2 1,-4 1,-2 1,-3.5 0,-1.5 0,-2.5 0,-1 0,-2 0,-1 0,-2 0,-1 1,-1 1,0 1,-1 0,-1 0,-2 0,-1 0,-2 0,-1 -0.5,-3 -0.5,-2 -1,-3.5 -0.5,-1.5 -0.5,-3 0,-1.5 -1,-2.5 -1,-1 -1,-2 0,-1 -1,-2 -1,-1 -1,-2 0,-1 -1,-1 -1,0 -2,0 -1,0 -4.5,1 -3.5,1 -4.5,2 -1,1 -2,2 -1,1 -1.5,1 -0.5,0 -1.5,1 -1,1 -1,2 0,1 0,2 0,1 0,2 0,1 1,2.5 1,1.5 2,2.5 1,1 2,2 1,1 1,2 0,1 1.5,2 1.5,1 1.5,2 0,1 0,2 0,1 0,2 0,1 0,2.5 0,1.5 0,2.5 0,1 0,2 0,1 0,2 0,1 0,2.5 0,1.5 0,2.5 0,1 0,1.5 0,0.5 0,1 0,0.5 0,2 0,1.5 0,2.5 0,1 0,2 0,1 0,3 0,2 0,3.5 0,1.5 0,4.5 0,3 0,4 0,1 0,2 0,1 0,2 0,1 -1.5,4 -1.5,3 -1.5,4 0,1 -1,2.5 -1,1.5 -1,2.5 0,1 0,1.5 0,0.5 0,1.5 0,1 0,3 0,2 -1,3 -1,1 -1,3 0,2 0,3.5 0,1.5 0,2.5 0,1 0,2 0,1 2,1 2,0 16,0.5 14,0.5 20.5,2.5 6.5,2 8,2 1.5,0 2.5,1 1,1 1.5,1 0.5,0 1.5,0 1,0 2,0 1,0 2,0 1,0 1,1 0,1 -3,1 -3,0 -4.5,0 -1.5,0 -3.5,0 -2,0 -4,0 -2,0 -4,-1 -2,-1 -3.5,-2 -1.5,-1 -2.5,-1 -1,0 -2,0 -1,0 -2,-1.5 -1,-1.5 -1,-2.5 0,-1 9.5,-5 9.5,-4 16.5,-11 7,-7 8,-8.5 1,-1.5 2.5,-2.5 1.5,-1 2.5,-1 1,0 1,-1.5 0,-1.5 1,-1.5 1,0 2,-2 1,-2 2,-2 1,0 3,0 2,0 3,-1 1,-1 2,-2 1,-1 3,-2.5 2,-1.5 4.5,-3.5 2.5,-2 4.5,-5 2,-3 5.5,-5 3.5,-2 4,-2.5 0.5,-0.5 3,-2.5 2.5,-2 3.5,-3 1,-1 1,-2.5 0,-1.5 1.5,-3 1.5,-1.5 3,-3 1.5,-1.5 4.5,-2.5 3,-1 3,-2 0,-1 1,-2 1,-1 1,-2 0,-1 0,-2.5 0,-1.5 1,-1.5 1,0 1,-1 0,-1 0,-2 0,-1 0.5,-2 0.5,-1 1.5,-1 1,0 1,-1 0,-1 0,-2 0,-1 1,-2 1,-1 2,-2 1,-1 1,-2.5 0,-1.5 3.5,-3.5 3.5,-2 4.5,-4 1,-2 2,-3.5 1,-1.5 1,-2.5 0,-1 1,-1 1,0 2,0 1,0 2,-1.5 1,-1.5 0,0 -1,1.5 -4,5.5 -3,4 -4,5 -1,1 -2,2 -1,1 -1,2 0,1 -1,2.5 -1,1.5 -2.5,2.5 -1.5,1 -1.5,3 0,2 0,3 0,1 -1,2 -1,1 -1,6.5 0,5.5 0,8 0,2.5 0,3.5 0,1 0,3.5 0,2.5 0,3.5 0,1 0,2 0,1 0,4 0,3 0,5 0,2 0,3.5 0,1.5 0,3.5 0,2 0.5,7.5 0.5,5.5 2,7 1.5,1.5 2.5,4.5 1,3 1,4 0,1 0,2 0,1 0,2 0,1 0,2 0,1 0,2.5 0,1.5 0,2.5 0,1 0,2 0,1 0,2 0,1 0,2 v 1.051"
   stroke-linecap="round"
   id="path3" />&#10;</g>&#10;		<g
   id="g84">&#10;<g
   id="g83">&#10;		<g
   transform="translate(100.24,-252.63)"
   id="g4">&#10;<path
   style="opacity:1;fill:#ff0000;fill-opacity:1;fill-rule:nonzero;stroke:none;stroke-width:1;stroke-linecap:butt;stroke-linejoin:miter;stroke-miterlimit:4;stroke-dasharray:none;stroke-dashoffset:0"
   transform="translate(-500.24,-147.37)"
   d="m 490.105,166.064 c 0,0 14.825,29.061 -26.682,26.286 0,0 -14.034,0.992 -5.931,8.699 0,0 15.415,25.1 55.146,9.879 0,0 8.498,-41.299 20.75,-74.307 0,0 14.229,-47.043 11.855,-57.713 0,0 -4.745,9.879 -18.974,8.11 -14.229,-1.783 -20.16,2.171 -20.16,2.171 z"
   stroke-linecap="round"
   id="path4" />&#10;</g>&#10;		<g
   transform="translate(100.25,-253.07)"
   id="g5">&#10;<path
   style="opacity:1;fill:#ff0000;fill-opacity:1;fill-rule:nonzero;stroke:none;stroke-width:1;stroke-linecap:butt;stroke-linejoin:miter;stroke-miterlimit:4;stroke-dasharray:none;stroke-dashoffset:0"
   transform="translate(-500.24,-146.92)"
   d="m 488.745,216.271 c -21.501,0 -30.964,-13.974 -31.594,-14.939 -2.186,-2.091 -3.003,-3.941 -2.446,-5.509 1.206,-3.338 8.384,-3.887 8.686,-3.907 1.903,0.127 3.68,0.181 5.349,0.181 11.092,0 18.351,-2.681 21.595,-7.962 4.577,-7.479 -0.57,-17.761 -0.624,-17.868 l -0.066,-0.134 0.033,-0.154 16.045,-77.055 0.147,-0.101 c 0.168,-0.114 4.169,-2.708 13.391,-2.708 2.226,0 4.604,0.154 7.064,0.462 1.119,0.141 2.226,0.214 3.277,0.214 11.239,0 15.207,-7.989 15.248,-8.069 l 0.549,-1.146 0.275,1.24 c 2.365,10.663 -11.28,56.003 -11.863,57.934 -12.11,32.62 -20.663,73.858 -20.743,74.274 l -0.054,0.234 -0.221,0.087 c -8.539,3.27 -16.629,4.926 -24.048,4.926 z m -25.348,-23.478 c -1.863,0.134 -7.024,0.999 -7.861,3.324 -0.437,1.22 0.321,2.775 2.265,4.611 l 0.067,0.094 c 0.094,0.147 9.229,14.57 30.877,14.57 7.252,0 15.16,-1.608 23.512,-4.785 0.717,-3.418 9.074,-42.773 20.716,-74.14 0.135,-0.429 13.244,-43.973 12.024,-56.298 -1.575,2.292 -6.153,7.5 -15.396,7.5 -1.086,0 -2.231,-0.074 -3.385,-0.221 -2.426,-0.301 -4.765,-0.456 -6.957,-0.456 -7.969,0 -11.963,2.024 -12.754,2.473 l -15.938,76.545 c 0.649,1.341 5.106,11.085 0.509,18.579 -3.913,6.394 -13.263,9.156 -27.679,8.204 z"
   stroke-linecap="round"
   id="path5" />&#10;</g>&#10;		<g
   transform="translate(94.18,-223.78)"
   id="g6">&#10;<path
   style="opacity:1;fill:#ffffff;fill-rule:nonzero;stroke:none;stroke-width:1;stroke-linecap:butt;stroke-linejoin:miter;stroke-miterlimit:4;stroke-dasharray:none;stroke-dashoffset:0"
   transform="translate(-494.18,-176.23)"
   d="m 495.836,138.559 -5.73,27.506 c 0,0 14.825,29.061 -26.682,26.286 0,0 -14.034,0.992 -5.931,8.699 0,0 15.415,25.1 55.146,9.879 0,0 8.498,-41.299 20.75,-74.307 z"
   stroke-linecap="round"
   id="path6" />&#10;</g>&#10;		<g
   transform="translate(94.29,-223.79)"
   id="g7">&#10;<path
   style="opacity:1;fill:#ff0000;fill-opacity:1;fill-rule:nonzero;stroke:none;stroke-width:1;stroke-linecap:butt;stroke-linejoin:miter;stroke-miterlimit:4;stroke-dasharray:none;stroke-dashoffset:0"
   transform="translate(-494.28,-176.21)"
   d="m 488.745,216.271 c -21.501,0 -30.964,-13.974 -31.594,-14.939 -2.186,-2.091 -3.003,-3.941 -2.446,-5.509 1.206,-3.338 8.384,-3.887 8.686,-3.907 1.903,0.127 3.68,0.181 5.349,0.181 11.085,0 18.351,-2.674 21.588,-7.962 4.584,-7.473 -0.563,-17.761 -0.617,-17.868 l -0.066,-0.134 5.831,-27.995 38.558,-1.991 -0.235,0.63 c -12.097,32.593 -20.649,73.832 -20.729,74.247 l -0.054,0.234 -0.221,0.087 c -8.541,3.27 -16.631,4.926 -24.05,4.926 z m -25.348,-23.478 c -1.863,0.134 -7.024,0.999 -7.861,3.324 -0.437,1.22 0.321,2.775 2.265,4.611 l 0.067,0.094 c 0.094,0.147 9.229,14.57 30.877,14.57 7.252,0 15.16,-1.608 23.512,-4.785 0.71,-3.398 8.96,-42.25 20.488,-73.51 l -36.554,1.876 -5.623,27.037 c 0.649,1.341 5.106,11.085 0.509,18.579 -3.914,6.394 -13.264,9.156 -27.68,8.204 z"
   stroke-linecap="round"
   id="path7" />&#10;</g>&#10;		<g
   transform="translate(-105.77,-252.13)"
   id="g8">&#10;<path
   style="opacity:1;fill:#ff0000;fill-opacity:1;fill-rule:nonzero;stroke:none;stroke-width:1;stroke-linecap:butt;stroke-linejoin:miter;stroke-miterlimit:4;stroke-dasharray:none;stroke-dashoffset:0"
   transform="translate(-294.23,-147.86)"
   d="m 300.179,175.065 c 0,0 3.951,14.886 18.974,14.015 15.02,-0.872 25.887,2.936 11.263,9.43 0,0 -17.985,3.331 -12.647,14.598 H 275.87 c 0,0 -0.396,-39.335 -7.312,-61.667 0,0 -18.381,-64.917 -17.393,-68.825 0,0 20.75,7.366 41.899,3.612 z"
   stroke-linecap="round"
   id="path8" />&#10;</g>&#10;		<g
   transform="translate(-105.76,-252.2)"
   id="g9">&#10;<path
   style="opacity:1;fill:#ff0000;fill-opacity:1;fill-rule:nonzero;stroke:none;stroke-width:1;stroke-linecap:butt;stroke-linejoin:miter;stroke-miterlimit:4;stroke-dasharray:none;stroke-dashoffset:0"
   transform="translate(-294.24,-147.79)"
   d="m 318.462,213.543 h -43.028 l -0.003,-0.429 c -0.003,-0.396 -0.476,-39.53 -7.292,-61.54 -0.757,-2.667 -18.404,-65.091 -17.399,-69.066 l 0.117,-0.462 0.456,0.161 c 0.131,0.041 13.294,4.645 29.081,4.645 4.393,0 8.632,-0.355 12.593,-1.059 l 0.476,-0.087 7.154,89.327 c 0.024,0.054 3.804,13.646 17.275,13.646 v 0 c 0.402,0 0.814,-0.013 1.233,-0.04 1.424,-0.081 2.832,-0.121 4.189,-0.121 3.18,0 13.619,0.288 14.413,4.042 0.409,1.93 -1.991,4.068 -7.135,6.354 l -0.097,0.033 c -0.097,0.014 -9.829,1.877 -12.566,7.239 -1.016,1.99 -0.938,4.256 0.234,6.735 z m -42.16,-0.871 h 40.79 c -1.022,-2.507 -1.005,-4.813 0.057,-6.89 2.858,-5.596 12.258,-7.526 13.136,-7.694 6.132,-2.735 6.759,-4.518 6.585,-5.349 -0.426,-1.997 -5.875,-3.344 -13.555,-3.344 -1.34,0 -2.731,0.04 -4.139,0.121 -0.436,0.027 -0.861,0.04 -1.284,0.04 v 0 c -14.158,0 -18.099,-14.235 -18.139,-14.376 l -7.088,-88.442 c -3.877,0.657 -8.002,0.992 -12.271,0.992 -14.131,0 -26.186,-3.653 -28.836,-4.518 0.154,5.912 12.5,50.722 17.422,68.108 6.464,20.87 7.252,56.969 7.322,61.352 z"
   stroke-linecap="round"
   id="path9" />&#10;</g>&#10;		<g
   transform="translate(-98.28,-222.09)"
   id="g10">&#10;<path
   style="opacity:1;fill:#ffffff;fill-rule:nonzero;stroke:none;stroke-width:1;stroke-linecap:butt;stroke-linejoin:miter;stroke-miterlimit:4;stroke-dasharray:none;stroke-dashoffset:0"
   transform="translate(-301.72,-177.91)"
   d="m 297.8,145.355 2.379,29.71 c 0,0 3.951,14.886 18.974,14.015 15.02,-0.872 25.887,2.936 11.263,9.43 0,0 -17.985,3.331 -12.647,14.598 H 275.87 c 0,0 -0.396,-39.335 -7.312,-61.667 0,0 -0.969,-3.418 -2.446,-8.727 0,0 24.761,-0.094 31.688,2.641 z"
   stroke-linecap="round"
   id="path10" />&#10;</g>&#10;		<g
   transform="translate(-98.35,-222.09)"
   id="g11">&#10;<path
   style="opacity:1;fill:#ff0000;fill-opacity:1;fill-rule:nonzero;stroke:none;stroke-width:1;stroke-linecap:butt;stroke-linejoin:miter;stroke-miterlimit:4;stroke-dasharray:none;stroke-dashoffset:0"
   transform="translate(-301.65,-177.91)"
   d="m 318.462,213.543 h -43.028 l -0.003,-0.429 c -0.003,-0.396 -0.476,-39.53 -7.292,-61.54 -0.003,-0.013 -0.972,-3.431 -2.453,-8.739 l -0.154,-0.563 h 0.892 c 2.537,0 24.969,0.08 31.537,2.667 l 0.255,0.107 2.402,29.986 c 0.024,0.054 4.021,14.443 18.508,13.605 1.424,-0.081 2.832,-0.121 4.189,-0.121 3.18,0 13.619,0.288 14.413,4.042 0.409,1.93 -1.991,4.068 -7.135,6.354 l -0.097,0.033 c -0.097,0.014 -9.829,1.877 -12.566,7.239 -1.016,1.99 -0.938,4.256 0.234,6.735 z m -42.16,-0.871 h 40.79 c -1.022,-2.507 -1.005,-4.813 0.057,-6.89 2.858,-5.596 12.258,-7.526 13.136,-7.694 6.132,-2.735 6.759,-4.518 6.585,-5.349 -0.426,-1.997 -5.875,-3.344 -13.555,-3.344 -1.34,0 -2.731,0.04 -4.139,0.121 -15.234,0.891 -19.383,-14.188 -19.423,-14.336 l -2.369,-29.517 c -6.535,-2.373 -27.221,-2.507 -30.696,-2.507 1.391,4.987 2.292,8.164 2.292,8.164 6.464,20.87 7.252,56.969 7.322,61.352 z"
   stroke-linecap="round"
   id="path11" />&#10;</g>&#10;		<g
   transform="translate(-3.28,-311.83)"
   id="g12">&#10;<path
   style="opacity:1;fill:#ff0000;fill-opacity:1;fill-rule:nonzero;stroke:none;stroke-width:1;stroke-linecap:butt;stroke-linejoin:miter;stroke-miterlimit:4;stroke-dasharray:none;stroke-dashoffset:0"
   transform="translate(-396.72,-88.17)"
   d="m 254.694,40.117 46.322,134.948 c 0,0 72.544,-56.278 189.692,-7.5 L 538.75,43.307 c 0,0 -109.064,-92.396 -284.056,-3.19 z"
   stroke-linecap="round"
   id="path12" />&#10;</g>&#10;		<g
   transform="translate(-3.28,-311.69)"
   id="g13">&#10;<path
   style="opacity:1;fill:#ff0000;fill-opacity:1;fill-rule:nonzero;stroke:none;stroke-width:1;stroke-linecap:butt;stroke-linejoin:miter;stroke-miterlimit:4;stroke-dasharray:none;stroke-dashoffset:0"
   transform="translate(-396.71,-88.32)"
   d="M 300.799,175.79 254.155,39.902 254.493,39.728 C 305.112,13.925 355.13,0.842 403.165,0.842 c 44.489,0 79.052,11.447 100.211,21.044 22.941,10.416 35.528,20.978 35.655,21.085 l 0.242,0.201 -0.114,0.288 -48.202,124.681 -0.416,-0.174 c -31.647,-13.176 -62.96,-19.852 -93.08,-19.852 -60.28,0 -95.825,27.023 -96.177,27.291 z M 255.234,40.332 301.238,174.356 c 4.491,-3.251 39.479,-27.124 96.224,-27.124 30.099,0 61.392,6.648 93,19.751 L 538.222,43.441 C 534.368,40.317 484.953,1.713 403.166,1.713 c -47.788,0 -97.559,13.003 -147.932,38.619 z"
   stroke-linecap="round"
   id="path13" />&#10;</g>&#10;		<g
   transform="translate(-3.83,-274.86)"
   id="g14">&#10;<path
   style="opacity:1;fill:#ffffff;fill-rule:nonzero;stroke:none;stroke-width:1;stroke-linecap:butt;stroke-linejoin:miter;stroke-miterlimit:4;stroke-dasharray:none;stroke-dashoffset:0"
   transform="translate(-396.17,-125.14)"
   d="m 277.844,107.555 23.173,67.511 c 0,0 72.544,-56.278 189.692,-7.5 l 23.793,-61.54 c 0,0 -102.47,-70.319 -236.658,1.529 z"
   stroke-linecap="round"
   id="path14" />&#10;</g>&#10;		<g
   transform="translate(-3.83,-274.72)"
   id="g15">&#10;<path
   style="opacity:1;fill:#ff0000;fill-opacity:1;fill-rule:nonzero;stroke:none;stroke-width:1;stroke-linecap:butt;stroke-linejoin:miter;stroke-miterlimit:4;stroke-dasharray:none;stroke-dashoffset:0"
   transform="translate(-396.17,-125.29)"
   d="m 300.799,175.79 -23.495,-68.45 0.332,-0.174 c 40.136,-21.487 81.425,-32.385 122.717,-32.385 68.594,0 113.948,30.569 114.397,30.884 l 0.288,0.188 -24.081,62.29 -0.416,-0.174 c -31.647,-13.176 -62.96,-19.852 -93.08,-19.852 -60.26,0 -95.825,27.023 -96.177,27.291 z m -22.419,-68.021 22.858,66.586 c 4.491,-3.251 39.479,-27.124 96.224,-27.124 30.099,0 61.392,6.648 93,19.751 l 23.505,-60.789 C 509.999,103.586 465.812,75.658 400.354,75.658 359.319,75.659 318.285,86.456 278.38,107.769 Z"
   stroke-linecap="round"
   id="path15" />&#10;</g>&#10;		<g
   transform="translate(246.3,-257.47)"
   id="g16">&#10;<path
   style="opacity:1;fill:#fafdc4;fill-rule:nonzero;stroke:none;stroke-width:1;stroke-linecap:butt;stroke-linejoin:miter;stroke-miterlimit:4;stroke-dasharray:none;stroke-dashoffset:0"
   transform="translate(-646.3,-142.53)"
   d="m 681.085,160.408 c 0,0 -7.406,-19.973 -8.05,-25.12 -0.644,-5.161 -11.272,-32.211 -17.07,-34.463 -5.797,-2.258 -31.567,-9.986 -44.456,-18.686 0,0 22.875,20.294 31.246,24.798 8.378,4.51 18.364,24.483 29.315,50.575 0,0 -32.532,26.085 -36.078,34.462 l -15.141,-11.273 1.931,11.273 12.889,10.952 c 0,0 32.21,-40.26 45.414,-43.806"
   stroke-linecap="round"
   id="path16" />&#10;</g>&#10;		<g
   transform="translate(165.59,-267.87)"
   id="g17">&#10;<path
   style="opacity:1;fill:#fafdc4;fill-rule:nonzero;stroke:none;stroke-width:1;stroke-linecap:butt;stroke-linejoin:miter;stroke-miterlimit:4;stroke-dasharray:none;stroke-dashoffset:0"
   transform="translate(-565.58,-132.13)"
   d="m 556.431,150.743 c 0,0 0.965,2.259 6.119,-11.273 5.154,-13.525 12.888,-14.812 12.888,-14.812 -2.258,-2.258 -2.258,-11.273 -2.258,-11.273 0,0 -21.581,8.693 -16.749,37.358 z"
   stroke-linecap="round"
   id="path17" />&#10;</g>&#10;		<g
   transform="translate(316.04,-82.72)"
   id="g18">&#10;<path
   style="opacity:1;fill:#fafdc4;fill-rule:nonzero;stroke:none;stroke-width:1;stroke-linecap:butt;stroke-linejoin:miter;stroke-miterlimit:4;stroke-dasharray:none;stroke-dashoffset:0"
   transform="translate(-716.04,-317.27)"
   d="m 667.238,334.021 c 0,0 16.105,-5.797 26.092,-5.154 0,0 22.867,-39.295 38.008,-52.505 0,0 27.7,5.656 21.902,33.591 -5.797,27.928 -1.293,29.222 -9.986,32.124 l 3.218,32.21 c 0,0 18.686,-30.924 16.755,-36.728 0,0 -0.65,-51.212 1.608,-55.079 0,0 -22.867,-13.525 -28.986,-22.224 0,0 -39.624,59.911 -48.967,63.135 -9.336,3.218 -19.644,10.63 -19.644,10.63 z"
   stroke-linecap="round"
   id="path18" />&#10;</g>&#10;		<g
   transform="translate(240.08,54.95)"
   id="g19">&#10;<path
   style="opacity:1;fill:#fafdc4;fill-rule:nonzero;stroke:none;stroke-width:1;stroke-linecap:butt;stroke-linejoin:miter;stroke-miterlimit:4;stroke-dasharray:none;stroke-dashoffset:0"
   transform="translate(-640.08,-454.95)"
   d="m 622.782,485.093 c 0,0 -10.944,-38.658 4.188,-41.876 0,0 7.092,-3.874 7.734,-8.378 0.644,-4.517 2.896,-10.629 9.337,-9.985 0,0 10.958,3.217 0,11.272 -10.952,8.057 0.972,10.951 0.972,10.951 0,0 9.986,3.218 15.783,-0.643 0,0 3.86,14.168 -12.244,11.916 10e-4,10e-4 -20.615,-17.077 -25.77,26.743 z"
   stroke-linecap="round"
   id="path19" />&#10;</g>&#10;		<g
   transform="translate(198.31,133.43)"
   id="g20">&#10;<path
   style="opacity:1;fill:#fafdc4;fill-rule:nonzero;stroke:none;stroke-width:1;stroke-linecap:butt;stroke-linejoin:miter;stroke-miterlimit:4;stroke-dasharray:none;stroke-dashoffset:0"
   transform="translate(-598.31,-533.42)"
   d="m 587.998,538.228 c 3.692,-24.503 37.687,-27.05 37.687,-27.05 0,0 -0.966,-7.734 -23.189,-4.196 -22.225,3.553 -23.196,30.603 -23.196,30.603 0,0 -2.574,17.721 -8.371,22.868 -10e-4,-10e-4 12.994,4.864 17.069,-22.225 z"
   stroke-linecap="round"
   id="path20" />&#10;</g>&#10;		<g
   transform="translate(205.22,-293.97)"
   id="g21">&#10;<path
   style="opacity:1;fill:#2e733a;fill-rule:nonzero;stroke:none;stroke-width:1;stroke-linecap:butt;stroke-linejoin:miter;stroke-miterlimit:4;stroke-dasharray:none;stroke-dashoffset:0"
   transform="translate(-605.22,-106.02)"
   d="m 594.017,111.174 c 7.962,-5.147 37.244,1.005 37.244,1.005 -1.22,-6.876 -21.173,-15.08 -21.173,-15.08 -10.528,-3.552 -16.293,-11.193 -16.293,-11.193 0,0 1.327,5.979 -4.215,13.854 -5.543,7.868 -11.193,18.397 -10.309,26.38 0,0 12.514,-13.519 14.746,-14.966 z"
   stroke-linecap="round"
   id="path21" />&#10;</g>&#10;		<g
   transform="translate(156.55,-185.21)"
   id="g22">&#10;<path
   style="opacity:1;fill:#2e733a;fill-rule:nonzero;stroke:none;stroke-width:1;stroke-linecap:butt;stroke-linejoin:miter;stroke-miterlimit:4;stroke-dasharray:none;stroke-dashoffset:0"
   transform="translate(-556.55,-214.79)"
   d="m 603.882,202.927 c 1.22,-26.742 -33.698,-28.793 -33.698,-28.793 -1.22,-15.964 -14.41,-14.959 -24.61,-10.086 -10.194,4.879 -9.973,15.629 -9.973,15.629 l -4.88,14.745 c 0,0 -6.876,-0.442 -9.202,8.505 -2.325,8.954 -13.411,20.757 -13.411,20.757 -0.221,19.289 15.522,16.963 15.522,16.963 8.197,-1.448 13.519,28.042 13.519,28.042 12.084,-6.876 30.709,-22.278 30.709,-22.278 11.086,-6.207 17.734,10.415 17.734,10.415 14.631,-18.176 19.396,-17.734 19.396,-17.734 -6.207,-16.622 -2.326,-9.424 -1.106,-36.165 z m -29.711,-7.4 c 0,0 7.205,6.648 7.205,25.281 0,0 -7.426,-18.042 -16.179,-19.168 0,0 -7.098,4.752 -12.969,23.377 0,0 -5.436,12.634 -8.646,14.631 0,0 3.768,-39.241 10.529,-43.786 0,0 -14.409,0.442 -27.271,14.41 0,0 7.553,-22.265 24.054,-23.163 0,0 5.985,-9.866 15.743,-0.777 0,0 11.307,-2.996 25.824,15.187 10e-4,0 -14.074,-6.983 -18.29,-5.992 z"
   stroke-linecap="round"
   id="path22" />&#10;</g>&#10;		<g
   transform="translate(213.92,-126.76)"
   id="g23">&#10;<path
   style="opacity:1;fill:#2e733a;fill-rule:nonzero;stroke:none;stroke-width:1;stroke-linecap:butt;stroke-linejoin:miter;stroke-miterlimit:4;stroke-dasharray:none;stroke-dashoffset:0"
   transform="translate(-613.91,-273.24)"
   d="m 594.405,261.142 c -11.206,12.077 4.27,15.12 4.979,15.12 0.711,0 10.67,-2.842 14.759,4.805 4.095,7.647 11.206,8.713 11.206,8.713 13.344,-2.486 12.097,-16.722 12.097,-16.722 -18.498,8.19 -19.563,-5.154 -19.563,-5.154 -9.785,2.138 -14.765,-11.206 -14.765,-11.206 0,0 -7.144,2.755 -8.713,4.444 z"
   stroke-linecap="round"
   id="path23" />&#10;</g>&#10;		<g
   transform="translate(249.36,-119.11)"
   id="g24">&#10;<path
   style="opacity:1;fill:none;fill-rule:nonzero;stroke:none;stroke-width:1;stroke-linecap:butt;stroke-linejoin:miter;stroke-miterlimit:4;stroke-dasharray:none;stroke-dashoffset:0"
   transform="translate(-649.36,-280.89)"
   d="M 649.363,280.887"
   stroke-linecap="round"
   id="path24" />&#10;</g>&#10;		<g
   transform="translate(274.94,-166.07)"
   id="g25">&#10;<path
   style="opacity:1;fill:#2e733a;fill-rule:nonzero;stroke:none;stroke-width:1;stroke-linecap:butt;stroke-linejoin:miter;stroke-miterlimit:4;stroke-dasharray:none;stroke-dashoffset:0"
   transform="translate(-674.94,-233.93)"
   d="m 703.43,208.141 c 0,0 -8.002,-0.174 -10.495,1.427 0,0 -4.799,-3.559 -8.888,-9.43 -4.095,-5.871 -8.538,-14.222 -26.507,-14.048 0,0 -3.553,3.74 -9.424,43.578 0,0 -20.763,2.185 -29.168,24.898 0,0 2.849,4.444 14.229,8.002 h 16.896 l 1.957,4.806 c 0,0 -2.948,6.515 -2.138,14.403 0,0 17.613,-17.07 28.994,-17.606 11.38,-0.536 19.027,2.842 19.027,2.842 l -2.486,-6.756 h 11.024 c 0,0 14.055,5.161 15.65,4.269 0,0 1.427,-18.317 4.269,-20.81 10e-4,0 19.746,-33.966 -22.94,-35.575 z m -8.358,33.973 8.002,6.582 c -4.979,1.957 -14.048,8.72 -14.048,8.72 l -9.785,-4.986 -17.606,6.762 9.424,-6.582 c 0,0 -1.24,-6.4 -37.881,-0.71 0,0 3.196,-8.357 14.938,-9.604 11.742,-1.247 28.277,-1.072 28.277,-1.072 0,0 1.427,-28.458 -8.358,-41.084 0,0 12.272,5.697 16.012,36.641 0,0 19.919,-11.735 29.343,-11.387 0,-0.001 -18.318,10.32 -18.318,16.72 z"
   stroke-linecap="round"
   id="path25" />&#10;</g>&#10;		<g
   transform="translate(309.18,-27.52)"
   id="g26">&#10;<path
   style="opacity:1;fill:#2e733a;fill-rule:nonzero;stroke:none;stroke-width:1;stroke-linecap:butt;stroke-linejoin:miter;stroke-miterlimit:4;stroke-dasharray:none;stroke-dashoffset:0"
   transform="translate(-709.17,-372.48)"
   d="m 705.22,405.406 c 2.238,-9.503 31.272,-33.524 31.272,-33.524 -1.448,-1.455 -1.053,-13.854 -1.053,-13.854 -11.615,2.768 -10.69,5.013 -10.69,5.013 0,8.049 -7.653,8.84 -7.653,8.84 -4.089,-17.023 5.804,-21.119 5.804,-21.119 v -11.213 c 0,0 -6.468,1.052 -8.974,1.582 0,0 -13.197,12.144 -13.197,14.912 0,2.775 3.298,18.478 1.85,21.38 0,0 -4.222,-1.977 -7.922,-10.026 0,0 0.135,-6.34 -12.801,-7.393 l 1.193,18.076 c 0,0 10.556,10.958 13.592,18.351 3.036,7.387 8.579,8.975 8.579,8.975 z"
   stroke-linecap="round"
   id="path26" />&#10;</g>&#10;		<g
   transform="translate(251.9,-5.69)"
   id="g27">&#10;<path
   style="opacity:1;fill:#2e733a;fill-rule:nonzero;stroke:none;stroke-width:1;stroke-linecap:butt;stroke-linejoin:miter;stroke-miterlimit:4;stroke-dasharray:none;stroke-dashoffset:0"
   transform="translate(-651.9,-394.32)"
   d="m 631.18,386.265 c 0.355,-10.677 -1.447,-17.151 -1.447,-17.151 0,0 7.654,8.706 18.076,11.219 10.429,2.507 14.383,2.239 18.344,5.014 0,0 -5.805,2.506 7.922,19.53 0,0 -5.677,4.092 -9.766,4.614 -4.095,0.536 -13.33,5.282 -11.748,10.027 0,0.001 -22.433,-1.581 -21.381,-33.253 z"
   stroke-linecap="round"
   id="path27" />&#10;</g>&#10;		<g
   transform="translate(336.89,33.38)"
   id="g28">&#10;<path
   style="opacity:1;fill:#2e733a;fill-rule:nonzero;stroke:none;stroke-width:1;stroke-linecap:butt;stroke-linejoin:miter;stroke-miterlimit:4;stroke-dasharray:none;stroke-dashoffset:0"
   transform="translate(-736.89,-433.38)"
   d="m 731.746,392.471 12.272,-2.111 0.925,12.01 -5.416,4.883 c 0,0 5.938,30.75 15.704,8.043 0,0 -1.1,9.504 -2.769,14.383 l -0.268,38.283 -10.288,8.444 -13.592,-5.938 c 0,0 2.372,-8.056 0,-11.085 l 5.67,-4.437 c 0,0 2.507,-18.659 -2.507,-20.509 l -11.347,-1.06 c 0,0 0.522,-13.323 -1.589,-16.366 0.002,10e-4 9.11,-7.52 13.205,-24.54 z"
   stroke-linecap="round"
   id="path28" />&#10;</g>&#10;		<g
   transform="translate(322.73,114.08)"
   id="g29">&#10;<path
   style="opacity:1;fill:#2e733a;fill-rule:nonzero;stroke:none;stroke-width:1;stroke-linecap:butt;stroke-linejoin:miter;stroke-miterlimit:4;stroke-dasharray:none;stroke-dashoffset:0"
   transform="translate(-722.73,-514.08)"
   d="m 709.569,534.997 2.641,-7.533 c 0,0 20.589,-3.298 16.366,-29.423 l 5.805,-4.879 c 0,0 10.689,38.135 -24.812,41.835 z"
   stroke-linecap="round"
   id="path29" />&#10;</g>&#10;		<g
   transform="translate(252.03,98.25)"
   id="g30">&#10;<path
   style="opacity:1;fill:#2e733a;fill-rule:nonzero;stroke:none;stroke-width:1;stroke-linecap:butt;stroke-linejoin:miter;stroke-miterlimit:4;stroke-dasharray:none;stroke-dashoffset:0"
   transform="translate(-652.03,-498.24)"
   d="m 666.548,520.078 9.638,-10.026 c 0,0 -14.518,4.356 -21.648,-5.014 l 1.06,-21.782 -4.887,-6.85 -4.745,4.745 1.314,22.962 c 0,0 -7.654,5.281 -13.593,-4.49 v -17.158 l -2.111,-6.059 -3.692,6.059 v 19.664 c -10e-4,0 -1.979,16.367 38.664,17.949 z"
   stroke-linecap="round"
   id="path30" />&#10;</g>&#10;		<g
   transform="translate(269.41,170.81)"
   id="g31">&#10;<path
   style="opacity:1;fill:#2e733a;fill-rule:nonzero;stroke:none;stroke-width:1;stroke-linecap:butt;stroke-linejoin:miter;stroke-miterlimit:4;stroke-dasharray:none;stroke-dashoffset:0"
   transform="translate(-669.41,-570.81)"
   d="m 725.668,548.08 c -30.529,33.792 -22.231,-43.283 -22.231,-43.283 0,0 -22.492,0.951 -32.438,16.125 0,0 -5.026,11.796 -11.28,15.281 0,0 -24,-9.946 -27.076,-9.946 0,0 2.459,0.51 -2.869,12.198 -5.335,11.702 -2.667,31.394 -2.667,31.394 l -13.947,-6.26 c 0,0 2.459,6.876 4.611,37.639 2.157,30.764 20.823,35.589 20.823,35.589 33.846,-2.453 43.591,-17.332 43.591,-17.332 l 5.845,16.3 c 40.099,-20.2 33.738,-60.092 33.431,-68.604 -0.311,-8.512 4.207,-19.101 4.207,-19.101 z m -56.252,54.891 c 0,0 8.659,3.392 13.271,-3.9 0,0 4.719,3.189 -11.997,15.589 0,0 -20.717,0.925 -24.302,-1.528 0,0 -29.644,-16.099 -24.818,-27.492 0,0 2.051,-7.413 20.609,14.598 0,0 10.563,10.938 9.128,-3.727 0,0 -11.796,-45.535 -8.512,-48.913 0,0 5.127,-4.115 13.331,41.741 0,0 6.574,22.654 13.29,-7.386 0,0 8.043,-39.797 17.07,-39.998 0,0 4.35,-1.032 -6.36,19.477 0,-10e-4 -12.808,32.826 -10.71,41.539 z"
   stroke-linecap="round"
   id="path31" />&#10;</g>&#10;		<g
   transform="translate(-246,-39.69)"
   id="g32">&#10;<path
   style="opacity:1;fill:#2e733a;fill-rule:nonzero;stroke:none;stroke-width:1;stroke-linecap:butt;stroke-linejoin:miter;stroke-miterlimit:4;stroke-dasharray:none;stroke-dashoffset:0"
   transform="translate(-153.99,-360.31)"
   d="m 249.148,190.085 16.655,-38.752 -39.697,-3.773 v -46.298 l -31.319,31.527 -4.4,35.931 -7.436,-20.113 -22.204,28.384 -3.354,14.557 c -6.076,-32.68 12.989,-43.564 30.271,-64.308 17.285,-20.743 11.105,-44.623 11.105,-44.623 2.198,26.601 -20.636,42.632 -47.763,71.332 -27.13,28.699 -23.464,58.027 -23.464,58.027 l -32.576,22.097 c 0,0 -2.932,-5.657 12.781,-30.274 15.71,-24.61 -1.364,-43.148 -1.364,-43.148 0.63,5.764 0.945,28.384 -15.921,37.492 -16.863,9.115 -21.263,46.406 -21.263,46.406 -1.256,-1.153 -19.691,-8.7 -19.691,-8.7 0.211,6.602 8.378,29.959 -4.085,51.748 -12.466,21.789 -6.598,65.152 -6.598,65.152 L 28.778,346.04 c 6.189,22.727 0,-1.045 3.867,57.083 3.863,58.137 25.575,60.817 25.575,60.817 -5.271,159.954 122.995,174.056 122.995,174.056 0,0 40.833,-50.548 6.937,-122.302 -33.896,-71.754 -38.454,-56.285 -41.825,-89.983 0,0 -3.17,-6.354 -5.352,-6.354 0,0 2.976,-37.456 4.758,-39.834 l -9.913,-7.138 c 3.988,-15.026 2.507,-28.645 7.433,-44.569 4.919,-15.918 6.283,-29.114 6.283,-29.114 39.385,-14.665 71.017,-60.856 74.998,-65.782 3.981,-4.926 16.966,-26.923 38.859,-24.302 21.893,2.621 2.198,55.099 2.198,55.099 38.338,-72.064 -16.443,-73.632 -16.443,-73.632 z M 65.672,506.097 c 0.901,-12.238 0.385,-31.325 3.995,-43.563 l 8.12,81.98 c 0,0 -13.019,-26.165 -12.115,-38.417 z m 116.012,70.775 c 3.224,3.874 7.734,15.603 6.317,37.64 l -15.083,-54.261 c -0.001,0 5.542,12.761 8.766,16.621 z m -75.795,-46.54 9.41,40.87 -19.594,-36.607 c 0,0 0.516,-5.67 10.184,-4.263 z m 5.801,62.264 c -1.98,-6.568 -12.376,-26.286 -12.376,-26.286 0,0 11.085,3.605 15.211,16.501 4.125,12.882 11.085,24.61 13.408,26.42 0,-10e-4 -13.794,-8.512 -16.243,-16.635 z"
   stroke-linecap="round"
   id="path32" />&#10;</g>&#10;		<g
   transform="translate(-0.55,-36.91)"
   id="g33">&#10;<path
   style="opacity:1;fill:#ff0000;fill-opacity:1;fill-rule:nonzero;stroke:none;stroke-width:1;stroke-linecap:butt;stroke-linejoin:miter;stroke-miterlimit:4;stroke-dasharray:none;stroke-dashoffset:0"
   transform="translate(-399.45,-363.08)"
   d="M 663.304,296.71 464.685,292.172 399.452,81.925 334.223,292.173 135.597,296.711 293.91,431.194 236.382,644.243 399.453,517.102 562.524,644.243 504.993,431.194 Z M 470.153,543.08 435.959,493.806 c -56.996,12.131 -77.588,-12.868 -77.588,-12.868 l -36.771,54.783 -19.122,-15.08 38.243,-60.668 -4.782,-6.983 30.153,-17.654 v 21.702 c 32.727,16.541 51.114,2.573 51.114,2.573 l -43.759,-69.867 -16.548,11.032 -15.811,-14.705 2.574,-11.4 40.448,-26.842 c 30.153,-2.942 34.563,5.147 34.563,5.147 -0.737,6.983 -25.371,24.637 -25.371,24.637 l 41.919,68.754 c 46.332,-62.87 -26.843,-136.413 -26.843,-136.413 55.89,24.63 68.396,56.258 71.332,99.645 2.653,39.101 -25,69.502 -25,69.502 l 34.195,50.735 z"
   stroke-linecap="round"
   id="path33" />&#10;</g>&#10;		<g
   transform="translate(1.12,271.18)"
   id="g34">&#10;<path
   style="opacity:1;fill:#ff0000;fill-opacity:1;fill-rule:nonzero;stroke:none;stroke-width:1;stroke-linecap:butt;stroke-linejoin:miter;stroke-miterlimit:4;stroke-dasharray:none;stroke-dashoffset:0"
   transform="translate(-401.12,-671.18)"
   d="m 564.011,584.901 c 0,0 -5.114,3.673 -14.155,9.075 l 14.202,52.585 -2.077,-1.622 -43.866,-34.208 c -30.636,14.235 -73.47,28.766 -118.663,27.265 -44.542,-1.475 -87.574,-14.65 -118.863,-27.104 l -45.743,35.669 13.488,-49.958 c -10.392,-5.107 -16.35,-8.579 -16.35,-8.579 l -35.756,106.994 12.489,-2.842 c 0,0 85.982,63.845 202.618,65.266 116.632,1.421 181.334,-62.424 181.334,-62.424 l 13.338,9.356 L 579.901,595.41 Z M 355.147,685.367 c 0,0 -9.648,31.5 -56.757,16.18 l -9.648,25.254 -17.312,-7.668 28.38,-90.238 c 0,0 68.674,9.932 55.337,56.472 z m 79.176,59.596 -15.328,-30.655 h -8.512 l -3.123,34.396 -20.147,-2.319 v -96.484 h 18.733 v 26.956 l 7.942,0.992 13.337,-32.211 21.85,1.702 -17.875,36.888 26.956,60.735 z m 64.985,-13.337 -19.865,-98.764 17.023,-1.983 29.517,92.798 z"
   stroke-linecap="round"
   id="path34" />&#10;</g>&#10;		<g
   transform="translate(-0.54,-36.58)"
   id="g35">&#10;<path
   style="opacity:1;fill:#ff0000;fill-opacity:1;fill-rule:nonzero;stroke:none;stroke-width:1;stroke-linecap:butt;stroke-linejoin:miter;stroke-miterlimit:4;stroke-dasharray:none;stroke-dashoffset:0"
   transform="translate(-399.45,-363.41)"
   d="m 504.422,430.523 156.557,-132.989 -196.951,-4.49 -0.188,-0.603 -64.388,-207.553 -64.576,208.157 -0.633,0.013 -196.317,4.477 156.979,133.35 -0.147,0.536 -56.841,210.517 161.536,-125.948 0.54,0.429 160.997,125.52 -56.989,-211.053 z m -34.484,113.79 -34.368,-49.528 c -10.208,2.145 -19.946,3.217 -28.954,3.217 -30.692,0 -44.794,-12.225 -48.138,-15.644 l -36.678,54.65 -20.489,-16.166 38.356,-60.843 -4.986,-7.292 32.288,-18.899 v 22.68 c 10.318,5.147 20.234,7.748 29.479,7.748 10.757,0 17.499,-3.606 19.557,-4.88 l -42.827,-68.379 -16.37,10.918 -16.692,-15.529 2.765,-12.238 40.924,-27.157 0.218,-0.02 c 4.41,-0.429 8.532,-0.65 12.251,-0.65 19.537,0 23.029,5.999 23.169,6.253 l 0.134,0.241 -0.033,0.275 c -0.71,6.742 -20.576,21.514 -25.069,24.778 l 40.806,66.938 c 22.714,-31.835 14.276,-66.355 3.097,-89.826 -12.292,-25.81 -30.441,-44.208 -30.622,-44.382 l 0.979,-1.427 c 55.836,24.61 68.892,56.66 71.854,100.395 2.459,36.232 -21.166,65.4 -24.771,69.623 l 34.302,50.896 z"
   stroke-linecap="round"
   id="path35" />&#10;</g>&#10;		<g
   transform="translate(-247.26,193.47)"
   id="g36">&#10;<path
   style="opacity:1;fill:#fff212;fill-rule:nonzero;stroke:none;stroke-width:1;stroke-linecap:butt;stroke-linejoin:miter;stroke-miterlimit:4;stroke-dasharray:none;stroke-dashoffset:0"
   transform="translate(-152.74,-593.47)"
   d="m 127.922,577.422 h 22.918 l 26.718,32.09 c 0.001,0 -37.85,-12.962 -49.636,-32.09 z"
   stroke-linecap="round"
   id="path36" />&#10;</g>&#10;		<g
   transform="translate(-262.85,154.45)"
   id="g37">&#10;<path
   style="opacity:1;fill:#fff212;fill-rule:nonzero;stroke:none;stroke-width:1;stroke-linecap:butt;stroke-linejoin:miter;stroke-miterlimit:4;stroke-dasharray:none;stroke-dashoffset:0"
   transform="translate(-137.15,-554.45)"
   d="m 115.61,542.839 c 0,0 14.407,-2.748 19.775,-2.092 l 23.313,26.715 -20.036,0.791 z"
   stroke-linecap="round"
   id="path37" />&#10;</g>&#10;		<g
   transform="translate(-244.57,125.09)"
   id="g38">&#10;<polygon
   style="opacity:1;fill:#fff212;fill-rule:nonzero;stroke:none;stroke-width:1;stroke-linecap:butt;stroke-linejoin:miter;stroke-miterlimit:4;stroke-dasharray:none;stroke-dashoffset:0"
   points="-6.16,13.95 6.16,27.04 6.16,-27.04 -4.58,-10.15 "
   id="polygon37" />&#10;</g>&#10;		<g
   transform="translate(-262.58,89.94)"
   id="g39">&#10;<polygon
   style="opacity:1;fill:#fff212;fill-rule:nonzero;stroke:none;stroke-width:1;stroke-linecap:butt;stroke-linejoin:miter;stroke-miterlimit:4;stroke-dasharray:none;stroke-dashoffset:0"
   points="5.31,26.33 5.31,-26.33 -5.31,-6.55 "
   id="polygon38" />&#10;</g>&#10;		<g
   transform="translate(-283.8,113.9)"
   id="g40">&#10;<path
   style="opacity:1;fill:#fff212;fill-rule:nonzero;stroke:none;stroke-width:1;stroke-linecap:butt;stroke-linejoin:miter;stroke-miterlimit:4;stroke-dasharray:none;stroke-dashoffset:0"
   transform="translate(-116.2,-513.9)"
   d="m 94.392,493.336 29.861,3.928 13.753,37.197 c 0,0 -39.553,-17.158 -43.614,-41.125 z"
   stroke-linecap="round"
   id="path39" />&#10;</g>&#10;		<g
   transform="translate(-298.93,66.95)"
   id="g41">&#10;<polygon
   style="opacity:1;fill:#fff212;fill-rule:nonzero;stroke:none;stroke-width:1;stroke-linecap:butt;stroke-linejoin:miter;stroke-miterlimit:4;stroke-dasharray:none;stroke-dashoffset:0"
   points="18.73,21.29 -11.27,4.52 -18.73,-21.29 7.46,-8.06 "
   id="polygon40" />&#10;</g>&#10;		<g
   transform="translate(-272.34,52.21)"
   id="g42">&#10;<polygon
   style="opacity:1;fill:#fff212;fill-rule:nonzero;stroke:none;stroke-width:1;stroke-linecap:butt;stroke-linejoin:miter;stroke-miterlimit:4;stroke-dasharray:none;stroke-dashoffset:0"
   points="10.35,6.29 -4.71,25.01 -10.35,-5.9 4.98,-25.01 "
   id="polygon41" />&#10;</g>&#10;		<g
   transform="translate(-306.26,27.26)"
   id="g43">&#10;<polygon
   style="opacity:1;fill:#fff212;fill-rule:nonzero;stroke:none;stroke-width:1;stroke-linecap:butt;stroke-linejoin:miter;stroke-miterlimit:4;stroke-dasharray:none;stroke-dashoffset:0"
   points="12.31,24.3 10.61,-4 -11.39,-24.3 -12.31,7.14 "
   id="polygon42" />&#10;</g>&#10;		<g
   transform="translate(-281.38,10.89)"
   id="g44">&#10;<polygon
   style="opacity:1;fill:#fff212;fill-rule:nonzero;stroke:none;stroke-width:1;stroke-linecap:butt;stroke-linejoin:miter;stroke-miterlimit:4;stroke-dasharray:none;stroke-dashoffset:0"
   points="9.95,6.74 -5.5,26 -9.95,-3.87 9.04,-26 "
   id="polygon43" />&#10;</g>&#10;		<g
   transform="translate(-282.69,-28.99)"
   id="g45">&#10;<polygon
   style="opacity:1;fill:#fff212;fill-rule:nonzero;stroke:none;stroke-width:1;stroke-linecap:butt;stroke-linejoin:miter;stroke-miterlimit:4;stroke-dasharray:none;stroke-dashoffset:0"
   points="-11.26,28.03 -11.26,-3.02 11.26,-28.03 11.26,-0.13 "
   id="polygon44" />&#10;</g>&#10;		<g
   transform="translate(-351.78,32.04)"
   id="g46">&#10;<polygon
   style="opacity:1;fill:#fff212;fill-rule:nonzero;stroke:none;stroke-width:1;stroke-linecap:butt;stroke-linejoin:miter;stroke-miterlimit:4;stroke-dasharray:none;stroke-dashoffset:0"
   points="8.18,21.74 -6.48,8.91 -8.84,-21.74 8.84,-8.12 "
   id="polygon45" />&#10;</g>&#10;		<g
   transform="translate(-351.71,-5.69)"
   id="g47">&#10;<polygon
   style="opacity:1;fill:#fff212;fill-rule:nonzero;stroke:none;stroke-width:1;stroke-linecap:butt;stroke-linejoin:miter;stroke-miterlimit:4;stroke-dasharray:none;stroke-dashoffset:0"
   points="7.99,23.31 -7.99,8.64 -4.45,-23.31 5.63,-6.94 "
   id="polygon46" />&#10;</g>&#10;		<g
   transform="translate(-337.95,-20.55)"
   id="g48">&#10;<polygon
   style="opacity:1;fill:#fff212;fill-rule:nonzero;stroke:none;stroke-width:1;stroke-linecap:butt;stroke-linejoin:miter;stroke-miterlimit:4;stroke-dasharray:none;stroke-dashoffset:0"
   points="2.49,23.51 -7.47,-11.99 7.47,-23.51 "
   id="polygon47" />&#10;</g>&#10;		<g
   transform="translate(-311.83,-30.05)"
   id="g49">&#10;<polygon
   style="opacity:1;fill:#fff212;fill-rule:nonzero;stroke:none;stroke-width:1;stroke-linecap:butt;stroke-linejoin:miter;stroke-miterlimit:4;stroke-dasharray:none;stroke-dashoffset:0"
   points="9.23,29.07 -9.23,13.75 -7.27,-29.07 9.23,-5.76 "
   id="polygon48" />&#10;</g>&#10;		<g
   transform="translate(-280.46,-75.88)"
   id="g50">&#10;<polygon
   style="opacity:1;fill:#fff212;fill-rule:nonzero;stroke:none;stroke-width:1;stroke-linecap:butt;stroke-linejoin:miter;stroke-miterlimit:4;stroke-dasharray:none;stroke-dashoffset:0"
   points="7.33,6.81 -5.5,16.77 -7.33,-6.55 3.93,-16.77 "
   id="polygon49" />&#10;</g>&#10;		<g
   transform="translate(-301.48,-71.36)"
   id="g51">&#10;<polygon
   style="opacity:1;fill:#fff212;fill-rule:nonzero;stroke:none;stroke-width:1;stroke-linecap:butt;stroke-linejoin:miter;stroke-miterlimit:4;stroke-dasharray:none;stroke-dashoffset:0"
   points="4.39,23.77 -6.48,4.65 -2.95,-23.77 6.48,-10.02 "
   id="polygon50" />&#10;</g>&#10;		<g
   transform="translate(-328.47,-75.56)"
   id="g52">&#10;<polygon
   style="opacity:1;fill:#fff212;fill-rule:nonzero;stroke:none;stroke-width:1;stroke-linecap:butt;stroke-linejoin:miter;stroke-miterlimit:4;stroke-dasharray:none;stroke-dashoffset:0"
   points="8.05,-18.53 -3.08,-13.04 -8.05,18.53 2.16,13.42 2.82,1.37 6.09,0.85 "
   id="polygon51" />&#10;</g>&#10;		<g
   transform="translate(-351.12,-62.96)"
   id="g53">&#10;<polygon
   style="opacity:1;fill:#fff212;fill-rule:nonzero;stroke:none;stroke-width:1;stroke-linecap:butt;stroke-linejoin:miter;stroke-miterlimit:4;stroke-dasharray:none;stroke-dashoffset:0"
   points="5.7,23.27 -7.4,-5.32 -3.99,-23.27 7.4,-3.1 "
   id="polygon52" />&#10;</g>&#10;		<g
   transform="translate(-341.92,-103.39)"
   id="g54">&#10;<polygon
   style="opacity:1;fill:#fff212;fill-rule:nonzero;stroke:none;stroke-width:1;stroke-linecap:butt;stroke-linejoin:miter;stroke-miterlimit:4;stroke-dasharray:none;stroke-dashoffset:0"
   points="3.96,26.46 -9.2,-0.52 0.82,-26.46 9.2,4.2 "
   id="polygon53" />&#10;</g>&#10;		<g
   transform="translate(-314.32,-124.41)"
   id="g55">&#10;<polygon
   style="opacity:1;fill:#fff212;fill-rule:nonzero;stroke:none;stroke-width:1;stroke-linecap:butt;stroke-linejoin:miter;stroke-miterlimit:4;stroke-dasharray:none;stroke-dashoffset:0"
   points="-11.72,18.79 -10.28,2.02 11.72,-18.79 11.07,0.32 "
   id="polygon54" />&#10;</g>&#10;		<g
   transform="translate(-321.68,-155.02)"
   id="g56">&#10;<polygon
   style="opacity:1;fill:#fff212;fill-rule:nonzero;stroke:none;stroke-width:1;stroke-linecap:butt;stroke-linejoin:miter;stroke-miterlimit:4;stroke-dasharray:none;stroke-dashoffset:0"
   points="-6.19,30.62 -7.37,6.19 4.68,-30.62 7.37,11.82 "
   id="polygon55" />&#10;</g>&#10;		<g
   transform="translate(-294.54,-164.16)"
   id="g57">&#10;<polygon
   style="opacity:1;fill:#fff212;fill-rule:nonzero;stroke:none;stroke-width:1;stroke-linecap:butt;stroke-linejoin:miter;stroke-miterlimit:4;stroke-dasharray:none;stroke-dashoffset:0"
   points="11.2,-11.79 8.71,-2.36 -11.2,11.79 -8.97,3.01 "
   id="polygon56" />&#10;</g>&#10;		<g
   transform="translate(-287.86,-113.41)"
   id="g58">&#10;<polygon
   style="opacity:1;fill:#fff212;fill-rule:nonzero;stroke:none;stroke-width:1;stroke-linecap:butt;stroke-linejoin:miter;stroke-miterlimit:4;stroke-dasharray:none;stroke-dashoffset:0"
   points="-3.21,24.43 -5.96,-13.81 2.29,-24.43 5.96,12.24 "
   id="polygon57" />&#10;</g>&#10;		<g
   transform="translate(-272.02,-142.68)"
   id="g59">&#10;<polygon
   style="opacity:1;fill:#fff212;fill-rule:nonzero;stroke:none;stroke-width:1;stroke-linecap:butt;stroke-linejoin:miter;stroke-miterlimit:4;stroke-dasharray:none;stroke-dashoffset:0"
   points="-5.83,22.4 -7.79,-12.34 5.96,-22.4 7.79,9.95 "
   id="polygon58" />&#10;</g>&#10;		<g
   transform="translate(-248.77,-118.45)"
   id="g60">&#10;<polygon
   style="opacity:1;fill:#fff212;fill-rule:nonzero;stroke:none;stroke-width:1;stroke-linecap:butt;stroke-linejoin:miter;stroke-miterlimit:4;stroke-dasharray:none;stroke-dashoffset:0"
   points="-20.17,14.01 -21.48,2.88 -3.01,-14.01 21.48,-13.1 "
   id="polygon59" />&#10;</g>&#10;		<g
   transform="translate(-232.13,-151.92)"
   id="g61">&#10;<polygon
   style="opacity:1;fill:#fff212;fill-rule:nonzero;stroke:none;stroke-width:1;stroke-linecap:butt;stroke-linejoin:miter;stroke-miterlimit:4;stroke-dasharray:none;stroke-dashoffset:0"
   points="21.48,-11.59 -1.83,-11.59 -21.48,11.59 2.75,7.01 "
   id="polygon60" />&#10;</g>&#10;		<g
   transform="translate(-251.45,-178.44)"
   id="g62">&#10;<polygon
   style="opacity:1;fill:#fff212;fill-rule:nonzero;stroke:none;stroke-width:1;stroke-linecap:butt;stroke-linejoin:miter;stroke-miterlimit:4;stroke-dasharray:none;stroke-dashoffset:0"
   points="4.78,-24.1 -4,-14.8 -6.22,24.1 6.22,12.7 "
   id="polygon61" />&#10;</g>&#10;		<g
   transform="translate(-206.21,-183.55)"
   id="g63">&#10;<polygon
   style="opacity:1;fill:#fff212;fill-rule:nonzero;stroke:none;stroke-width:1;stroke-linecap:butt;stroke-linejoin:miter;stroke-miterlimit:4;stroke-dasharray:none;stroke-dashoffset:0"
   points="5.63,8.38 -22,7.6 -9.43,-7.73 22,-8.38 "
   id="polygon62" />&#10;</g>&#10;		<g
   transform="translate(-226.89,-210.92)"
   id="g64">&#10;<polygon
   style="opacity:1;fill:#fff212;fill-rule:nonzero;stroke:none;stroke-width:1;stroke-linecap:butt;stroke-linejoin:miter;stroke-miterlimit:4;stroke-dasharray:none;stroke-dashoffset:0"
   points="-10.22,28.16 -10.22,-9.43 7.86,-28.16 10.22,8.39 "
   id="polygon63" />&#10;</g>&#10;		<g
   transform="translate(-186.88,-209.21)"
   id="g65">&#10;<polygon
   style="opacity:1;fill:#fff212;fill-rule:nonzero;stroke:none;stroke-width:1;stroke-linecap:butt;stroke-linejoin:miter;stroke-miterlimit:4;stroke-dasharray:none;stroke-dashoffset:0"
   points="21.81,-7.73 12.9,6.68 -21.81,7.73 -14.61,-5.9 "
   id="polygon64" />&#10;</g>&#10;		<g
   transform="translate(-170.9,-234.23)"
   id="g66">&#10;<polygon
   style="opacity:1;fill:#fff212;fill-rule:nonzero;stroke:none;stroke-width:1;stroke-linecap:butt;stroke-linejoin:miter;stroke-miterlimit:4;stroke-dasharray:none;stroke-dashoffset:0"
   points="24.43,-9.3 11.59,7.2 -24.43,9.3 -9.23,-9.3 "
   id="polygon65" />&#10;</g>&#10;		<g
   transform="translate(-192.97,-253.36)"
   id="g67">&#10;<polygon
   style="opacity:1;fill:#fff212;fill-rule:nonzero;stroke:none;stroke-width:1;stroke-linecap:butt;stroke-linejoin:miter;stroke-miterlimit:4;stroke-dasharray:none;stroke-dashoffset:0"
   points="-11.13,23.44 -8.52,-4.85 11.13,-23.44 11.13,-0.26 "
   id="polygon66" />&#10;</g>&#10;		<g
   transform="translate(268.72,234.7)"
   id="g68">&#10;<polygon
   style="opacity:1;fill:#ff0000;fill-opacity:1;fill-rule:nonzero;stroke:none;stroke-width:1;stroke-linecap:butt;stroke-linejoin:miter;stroke-miterlimit:4;stroke-dasharray:none;stroke-dashoffset:0"
   points="25.82,-33.34 25.82,-22.83 -14.19,30.52 -24.69,33.34 -25.82,23.71 18.73,-31.35 "
   id="polygon67" />&#10;</g>&#10;		<g
   transform="translate(258.37,280.97)"
   id="g69">&#10;<polygon
   style="opacity:1;fill:#ff0000;fill-opacity:1;fill-rule:nonzero;stroke:none;stroke-width:1;stroke-linecap:butt;stroke-linejoin:miter;stroke-miterlimit:4;stroke-dasharray:none;stroke-dashoffset:0"
   points="19.72,-8.94 -9.23,25.68 -19.72,25.68 -18.3,11.49 11.05,-23.14 19.72,-25.68 "
   id="polygon68" />&#10;</g>&#10;		<g
   transform="translate(295.26,282.32)"
   id="g70">&#10;<polygon
   style="opacity:1;fill:#ff0000;fill-opacity:1;fill-rule:nonzero;stroke:none;stroke-width:1;stroke-linecap:butt;stroke-linejoin:miter;stroke-miterlimit:4;stroke-dasharray:none;stroke-dashoffset:0"
   points="-38.74,47.61 38.74,-34.42 38.74,-47.61 23.7,-43.21 -28.52,15.82 -28.52,30.29 "
   id="polygon69" />&#10;</g>&#10;		<g
   transform="translate(201.05,245.64)"
   id="g71">&#10;<polygon
   style="opacity:1;fill:#ff0000;fill-opacity:1;fill-rule:nonzero;stroke:none;stroke-width:1;stroke-linecap:butt;stroke-linejoin:miter;stroke-miterlimit:4;stroke-dasharray:none;stroke-dashoffset:0"
   points="5.82,-49.38 -20.29,-78.04 -31.93,-74.84 -5.53,-45.4 18.87,78.04 31.93,78.04 "
   id="polygon70" />&#10;</g>&#10;		<g
   transform="translate(318.98,320.92)"
   id="g72">&#10;<path
   style="opacity:1;fill:#ff0000;fill-opacity:1;fill-rule:nonzero;stroke:none;stroke-width:1;stroke-linecap:butt;stroke-linejoin:miter;stroke-miterlimit:4;stroke-dasharray:none;stroke-dashoffset:0"
   transform="translate(-718.98,-720.91)"
   d="m 666.742,744.105 37.74,-53.068 c 0,0 4.081,12.493 66.74,7.386 l -61.653,51.366 c 0,0 -34.603,4.53 -42.827,-5.684 z"
   stroke-linecap="round"
   id="path71" />&#10;</g>&#10;		<g
   transform="translate(-253.15,292.04)"
   id="g73">&#10;<polygon
   style="opacity:1;fill:#ff0000;fill-opacity:1;fill-rule:nonzero;stroke:none;stroke-width:1;stroke-linecap:butt;stroke-linejoin:miter;stroke-miterlimit:4;stroke-dasharray:none;stroke-dashoffset:0"
   points="17.59,4.11 15.89,21.15 -17.59,-10.65 -17.59,-21.15 -7.1,-21.15 "
   id="polygon72" />&#10;</g>&#10;		<g
   transform="translate(-262.8,246.49)"
   id="g74">&#10;<polygon
   style="opacity:1;fill:#ff0000;fill-opacity:1;fill-rule:nonzero;stroke:none;stroke-width:1;stroke-linecap:butt;stroke-linejoin:miter;stroke-miterlimit:4;stroke-dasharray:none;stroke-dashoffset:0"
   points="28.95,21 28.95,33.2 18.22,31.21 -28.95,-22.14 -28.95,-33.2 -18.73,-31.79 "
   id="polygon73" />&#10;</g>&#10;		<g
   transform="translate(-295.14,276.58)"
   id="g75">&#10;<polygon
   style="opacity:1;fill:#ff0000;fill-opacity:1;fill-rule:nonzero;stroke:none;stroke-width:1;stroke-linecap:butt;stroke-linejoin:miter;stroke-miterlimit:4;stroke-dasharray:none;stroke-dashoffset:0"
   points="27.25,16.74 27.25,36.61 -25.83,-21.29 -27.25,-36.61 -17.32,-34.91 "
   id="polygon74" />&#10;</g>&#10;		<g
   transform="translate(-305.65,323.6)"
   id="g76">&#10;<path
   style="opacity:1;fill:#ff0000;fill-opacity:1;fill-rule:nonzero;stroke:none;stroke-width:1;stroke-linecap:butt;stroke-linejoin:miter;stroke-miterlimit:4;stroke-dasharray:none;stroke-dashoffset:0"
   transform="translate(-94.35,-723.6)"
   d="m 41.853,696.721 c 0,0 19.58,11.354 40.297,7.373 20.713,-3.968 27.811,-1.984 27.811,-1.984 0,0 11.917,38.538 36.889,42.572 0,0 -49.379,30.361 -104.997,-47.961 z"
   stroke-linecap="round"
   id="path75" />&#10;</g>&#10;		<g
   transform="translate(-195.86,245.17)"
   id="g77">&#10;<path
   style="opacity:1;fill:#ff0000;fill-opacity:1;fill-rule:nonzero;stroke:none;stroke-width:1;stroke-linecap:butt;stroke-linejoin:miter;stroke-miterlimit:4;stroke-dasharray:none;stroke-dashoffset:0"
   transform="translate(-204.14,-645.17)"
   d="m 182.324,722.256 -9.933,-4.249 c 0,0 24.406,-91.096 31.785,-106.712 0,0 11.065,-33.311 24.403,-43.042 0,0 16.46,-2.922 0,15.241 0,0 -9.648,15.321 -19.014,44.261 -9.363,28.954 -27.241,94.501 -27.241,94.501 z"
   stroke-linecap="round"
   id="path76" />&#10;</g>&#10;		<g
   transform="translate(69.36,377.31)"
   id="g78">&#10;<path
   style="opacity:1;fill:#2e733a;fill-rule:nonzero;stroke:none;stroke-width:1;stroke-linecap:butt;stroke-linejoin:miter;stroke-miterlimit:4;stroke-dasharray:none;stroke-dashoffset:0"
   transform="translate(-469.36,-777.31)"
   d="m 439.906,764.386 12.634,-2.546 c 0,0 26.111,18.297 46.265,17.023 l -22.848,13.913 z"
   stroke-linecap="round"
   id="path77" />&#10;</g>&#10;		<g
   transform="translate(39.76,381.84)"
   id="g79">&#10;<polygon
   style="opacity:1;fill:#2e733a;fill-rule:nonzero;stroke:none;stroke-width:1;stroke-linecap:butt;stroke-linejoin:miter;stroke-miterlimit:4;stroke-dasharray:none;stroke-dashoffset:0"
   points="21.43,12.92 5.68,17.31 -21.43,-15.76 -11.07,-17.31 "
   id="polygon78" />&#10;</g>&#10;		<g
   transform="translate(-11.4,380.92)"
   id="g80">&#10;<polygon
   style="opacity:1;fill:#2e733a;fill-rule:nonzero;stroke:none;stroke-width:1;stroke-linecap:butt;stroke-linejoin:miter;stroke-miterlimit:4;stroke-dasharray:none;stroke-dashoffset:0"
   points="-1.63,15.11 -18.8,15.11 9.72,-15.11 18.8,-15.11 "
   id="polygon79" />&#10;</g>&#10;		<g
   transform="translate(-42.58,380.5)"
   id="g81">&#10;<polygon
   style="opacity:1;fill:#2e733a;fill-rule:nonzero;stroke:none;stroke-width:1;stroke-linecap:butt;stroke-linejoin:miter;stroke-miterlimit:4;stroke-dasharray:none;stroke-dashoffset:0"
   points="-31.19,8.87 -13.02,18.66 31.19,-16.68 20.05,-18.66 "
   id="polygon80" />&#10;</g>&#10;		<g
   transform="translate(-79.06,272.4)"
   id="g82">&#10;<path
   style="opacity:1;fill:#ff0000;fill-opacity:1;fill-rule:nonzero;stroke:none;stroke-width:1;stroke-linecap:butt;stroke-linejoin:miter;stroke-miterlimit:4;stroke-dasharray:none;stroke-dashoffset:0"
   transform="translate(-320.95,-672.39)"
   d="m 334.467,679.161 c -8.747,19.021 -28.263,4.115 -28.263,4.115 l 8.016,-27.318 c 0,0 27.526,7.386 20.247,23.203 z"
   stroke-linecap="round"
   id="path81" />&#10;</g>&#10;</g>&#10;</g>&#10;</g>&#10;</g></g>&#10;</svg>
